<?xml version="1.0" standalone="no"?>
<!DOCTYPE svg PUBLIC "-//W3C//DTD SVG 20010904//EN"
 "http://www.w3.org/TR/2001/REC-SVG-20010904/DTD/svg10.dtd">
<svg version="1.0" xmlns="http://www.w3.org/2000/svg"
 width="512.000000pt" height="512.000000pt" viewBox="0 0 512.000000 512.000000"
 preserveAspectRatio="xMidYMid meet">

<g transform="translate(0.000000,512.000000) scale(0.100000,-0.100000)"
fill="#000000" stroke="none">
<path d="M2354 5110 c-500 -42 -969 -226 -1374 -538 -109 -85 -347 -323 -432
-432 -436 -566 -618 -1251 -518 -1950 64 -440 239 -850 519 -1210 81 -105 311
-337 410 -415 563 -442 1238 -630 1940 -539 451 58 890 246 1261 538 97 76
320 299 396 396 292 370 476 804 540 1270 23 169 23 491 0 659 -40 295 -111
528 -241 796 -340 699 -985 1205 -1750 1374 -216 48 -535 69 -751 51z m331
-1178 c24 -12 278 -259 637 -619 645 -646 637 -637 638 -744 0 -144 -94 -252
-234 -266 l-53 -6 -5 -451 c-5 -441 -6 -452 -28 -504 -28 -66 -111 -144 -176
-166 -39 -13 -96 -16 -315 -16 -248 0 -268 1 -290 19 l-24 19 -5 374 c-4 335
-7 377 -23 401 -38 58 -55 62 -247 62 -155 0 -178 -2 -203 -19 -51 -35 -52
-36 -57 -434 l-5 -374 -29 -24 -28 -25 -277 3 c-256 3 -279 5 -322 24 -66 31
-114 78 -146 142 l-28 57 -3 457 -3 458 -33 0 c-137 0 -252 107 -263 244 -11
125 -24 109 623 756 316 316 595 590 619 608 24 18 56 37 72 42 47 16 163 6
208 -18z"/>
</g>
</svg>
