<?xml version="1.0" standalone="no"?>
<!DOCTYPE svg PUBLIC "-//W3C//DTD SVG 20010904//EN"
 "http://www.w3.org/TR/2001/REC-SVG-20010904/DTD/svg10.dtd">
<svg version="1.0" xmlns="http://www.w3.org/2000/svg"
 width="1080.000000pt" height="1080.000000pt" viewBox="0 0 1080.000000 1080.000000"
 preserveAspectRatio="xMidYMid meet">

<g transform="translate(0.000000,1080.000000) scale(0.100000,-0.100000)"
fill="#000000" stroke="none">
<path d="M7980 8804 c-169 -44 -323 -169 -399 -324 -94 -192 -94 -381 1 -570
83 -163 246 -288 428 -326 151 -32 340 3 466 86 117 77 229 223 263 345 97
347 -103 701 -445 789 -77 20 -239 20 -314 0z"/>
<path d="M4018 8413 c23 -2 61 -2 85 0 23 2 4 4 -43 4 -47 0 -66 -2 -42 -4z"/>
<path d="M4188 8403 c7 -3 16 -2 19 1 4 3 -2 6 -13 5 -11 0 -14 -3 -6 -6z"/>
<path d="M7085 8400 c-126 -30 -228 -84 -316 -167 -102 -95 -162 -200 -205
-359 l-27 -99 -8 -1155 c-5 -635 -10 -1169 -11 -1186 -3 -28 -99 113 -748
1094 -410 619 -796 1204 -858 1301 -125 194 -175 262 -242 331 -25 25 -33 32
-17 15 l27 -31 0 -1157 c0 -877 -3 -1157 -12 -1157 -6 0 -20 -8 -30 -17 -28
-25 -48 -25 -48 0 0 16 -3 18 -9 9 -4 -8 -12 -14 -17 -14 -5 0 -16 -4 -24 -10
-12 -8 -12 -8 3 -4 11 4 16 2 12 -5 -4 -6 -14 -8 -22 -5 -8 3 -25 -1 -38 -10
-27 -18 -43 -3 -18 17 12 10 14 10 9 2 -10 -18 2 -16 21 2 14 14 12 15 -13 11
-16 -3 -31 0 -36 7 -6 9 -8 9 -8 0 0 -7 -7 -13 -16 -13 -10 0 -14 5 -10 16 3
9 2 12 -5 9 -6 -4 -8 -12 -6 -19 2 -6 0 -20 -5 -31 -8 -18 -8 -18 -4 2 5 27
-10 41 -17 16 -4 -17 -5 -17 -6 0 -1 19 -12 22 -28 6 -8 -8 -17 -8 -33 1 -12
7 -20 8 -16 2 3 -5 -2 -16 -11 -23 -14 -12 -16 -12 -9 1 4 8 0 6 -8 -4 -11
-14 -16 -15 -16 -6 0 11 -3 11 -12 2 -7 -7 -17 -12 -22 -12 -6 0 -4 5 4 10 13
9 13 10 0 11 -8 1 -18 1 -22 0 -5 0 -8 5 -8 12 0 6 -9 -3 -20 -21 -18 -29 -22
-31 -40 -20 -22 14 -27 38 -8 38 6 0 9 2 6 5 -3 3 -18 -1 -34 -10 -16 -8 -35
-15 -41 -15 -7 0 -13 -7 -13 -17 0 -15 -2 -15 -19 1 -15 13 -20 14 -23 4 -4
-10 -8 -10 -19 -2 -8 6 -25 10 -39 9 -14 -1 -29 3 -33 9 -5 6 -6 1 -2 -11 8
-30 0 -42 -25 -36 -11 3 -18 8 -16 12 2 3 -3 13 -12 20 -14 13 -15 12 -9 -8 4
-17 2 -20 -7 -12 -13 11 -77 10 -70 -1 2 -4 -1 -10 -7 -14 -8 -4 -9 -3 -5 4 4
7 2 12 -4 12 -6 0 -8 6 -5 13 4 6 -2 2 -12 -11 -13 -16 -24 -21 -38 -16 -14 6
-16 4 -10 -7 4 -8 5 -11 0 -7 -4 4 -13 4 -19 -1 -6 -4 -19 -11 -28 -14 -13 -4
-15 -2 -11 10 5 13 2 15 -11 10 -9 -4 -15 -3 -11 2 3 5 1 12 -5 16 -6 4 -7 11
-4 17 4 7 2 8 -4 4 -6 -4 -9 -13 -5 -21 3 -8 0 -15 -6 -15 -6 0 -11 4 -11 8 0
5 -11 14 -25 20 -15 7 -25 8 -25 2 0 -6 -7 -10 -15 -10 -10 0 -15 -10 -15 -27
0 -22 -2 -25 -10 -13 -9 13 -12 13 -21 -3 -8 -14 -14 -16 -25 -6 -10 8 -18 9
-27 0 -10 -8 -14 -7 -14 4 0 8 4 12 8 9 4 -2 11 1 14 6 5 7 12 5 21 -7 7 -10
13 -13 14 -8 0 13 -11 27 -35 45 -19 14 -19 14 -5 -4 14 -18 13 -19 -7 -14
-13 3 -21 2 -20 -4 1 -6 -4 -13 -12 -16 -9 -3 -11 0 -6 8 5 8 4 11 -3 6 -6 -3
-13 2 -15 11 -4 17 -5 17 -6 1 -1 -18 -31 -26 -31 -10 0 5 -7 9 -15 9 -14 0
-19 -10 -16 -30 1 -5 -3 -6 -8 -3 -5 3 -7 16 -5 29 4 20 4 20 -5 2 -4 -11 -7
-23 -5 -26 2 -4 -2 -12 -10 -18 -11 -9 -18 -8 -30 4 -19 20 -12 36 12 29 14
-5 14 -3 -2 6 -14 10 -20 10 -26 0 -4 -7 -10 -8 -12 -4 -3 5 -3 2 0 -6 2 -8 3
-22 2 -30 -2 -8 -4 -557 -4 -1220 l-1 -1205 23 -95 c56 -226 191 -407 373
-500 191 -98 473 -100 671 -6 129 62 263 197 328 332 16 34 42 108 57 165 l27
104 6 1158 5 1158 729 -1118 c401 -615 786 -1199 855 -1298 238 -339 412 -479
681 -546 80 -20 119 -24 245 -23 129 0 164 4 249 27 113 30 219 86 299 158
104 93 214 287 222 393 2 23 10 81 19 130 14 79 16 298 15 2055 -1 1081 -4
1976 -7 1989 -13 43 -68 88 -134 107 -209 61 -373 192 -461 368 -62 126 -69
158 -76 337 -7 177 -11 191 -68 234 -28 21 -112 29 -168 16z m-2408 -2592 c0
-7 -11 -14 -24 -14 -19 -2 -22 1 -12 12 14 17 36 18 36 2z m-99 -23 c-3 -3 -9
2 -12 12 -6 14 -5 15 5 6 7 -7 10 -15 7 -18z m-243 -6 c11 -17 -1 -21 -15 -4
-8 9 -8 15 -2 15 6 0 14 -5 17 -11z m28 -4 c-3 -9 -8 -14 -10 -11 -3 3 -2 9 2
15 9 16 15 13 8 -4z m81 -3 c3 -5 -1 -9 -9 -9 -8 0 -12 4 -9 9 3 4 7 8 9 8 2
0 6 -4 9 -8z m-233 -19 c13 -16 12 -17 -3 -4 -10 7 -18 15 -18 17 0 8 8 3 21
-13z m-257 -1 c3 -5 -1 -9 -9 -9 -8 0 -12 4 -9 9 3 4 7 8 9 8 2 0 6 -4 9 -8z
m146 -15 c0 -2 -8 -3 -18 -3 -10 0 -19 6 -19 13 0 8 6 9 19 2 10 -5 18 -11 18
-12z m-533 -12 c9 -24 -1 -27 -15 -5 -8 13 -8 20 -2 20 6 0 13 -7 17 -15z
m-42 -4 c-3 -5 2 -12 10 -14 12 -4 12 -5 -1 -3 -19 1 -32 26 -14 26 6 0 9 -4
5 -9z m305 -5 c-7 -7 -13 -7 -20 0 -6 6 -3 10 10 10 13 0 16 -4 10 -10z m-478
-28 c-7 -7 -12 -8 -12 -2 0 14 12 26 19 19 2 -3 -1 -11 -7 -17z m-25 6 c-3 -3
-12 -4 -19 -1 -8 3 -5 6 6 6 11 1 17 -2 13 -5z"/>
<path d="M4401 8346 c10 -9 69 -36 69 -32 0 6 -55 36 -66 36 -4 0 -5 -2 -3 -4z"/>
<path d="M3664 8324 c-18 -14 -18 -14 6 -3 31 14 36 19 24 19 -6 0 -19 -7 -30
-16z"/>
<path d="M4585 8230 c10 -11 20 -20 23 -20 3 0 -3 9 -13 20 -10 11 -20 20 -23
20 -3 0 3 -9 13 -20z"/>
<path d="M3509 8223 c-13 -16 -12 -17 4 -4 9 7 17 15 17 17 0 8 -8 3 -21 -13z"/>
<path d="M3430 8155 c-24 -25 -42 -45 -39 -45 3 0 25 20 49 45 24 25 42 45 39
45 -3 0 -25 -20 -49 -45z"/>
<path d="M3369 8083 c-13 -16 -12 -17 4 -4 16 13 21 21 13 21 -2 0 -10 -8 -17
-17z"/>
<path d="M3201 7644 c0 -11 3 -14 6 -6 3 7 2 16 -1 19 -3 4 -6 -2 -5 -13z"/>
<path d="M3192 7560 c0 -19 2 -27 5 -17 2 9 2 25 0 35 -3 9 -5 1 -5 -18z"/>
<path d="M4250 5806 c7 -7 13 -7 20 0 6 6 3 10 -10 10 -13 0 -16 -4 -10 -10z"/>
<path d="M3466 5734 c-4 -9 -4 -19 -1 -22 3 -3 5 0 5 7 0 7 5 9 10 6 6 -3 10
-2 10 4 0 18 -18 21 -24 5z"/>
<path d="M3620 5740 c0 -5 5 -10 10 -10 6 0 10 5 10 10 0 6 -4 10 -10 10 -5 0
-10 -4 -10 -10z"/>
<path d="M3715 5740 c-3 -5 -1 -10 4 -10 6 0 11 5 11 10 0 6 -2 10 -4 10 -3 0
-8 -4 -11 -10z"/>
<path d="M3650 5730 c0 -13 18 -22 24 -11 3 5 -1 11 -9 15 -8 3 -15 1 -15 -4z"/>
</g>
</svg>
