<?xml version="1.0" standalone="no"?>
<!DOCTYPE svg PUBLIC "-//W3C//DTD SVG 20010904//EN"
 "http://www.w3.org/TR/2001/REC-SVG-20010904/DTD/svg10.dtd">
<svg version="1.0" xmlns="http://www.w3.org/2000/svg"
 width="512.000000pt" height="512.000000pt" viewBox="0 0 512.000000 512.000000"
 preserveAspectRatio="xMidYMid meet">

<g transform="translate(0.000000,512.000000) scale(0.100000,-0.100000)"
fill="#000000" stroke="none">
<path d="M2500 4474 c-14 -2 -59 -9 -100 -15 -165 -24 -400 -120 -548 -225
-150 -107 -287 -263 -364 -419 -73 -147 -88 -237 -88 -555 -1 -167 -4 -224
-16 -255 -50 -131 -57 -249 -24 -381 37 -145 119 -279 269 -439 51 -54 84
-104 145 -220 44 -83 95 -174 114 -204 l34 -54 -4 -112 c-3 -104 -5 -114 -31
-148 -16 -21 -43 -43 -60 -50 -18 -8 -195 -46 -395 -86 -392 -78 -476 -101
-592 -162 -146 -77 -200 -132 -200 -207 0 -71 38 -123 205 -274 391 -355 858
-571 1392 -645 159 -22 487 -22 646 0 531 74 996 288 1387 640 166 150 210
208 210 279 0 77 -56 133 -213 213 -120 61 -173 75 -597 160 -203 41 -378 79
-389 85 -11 5 -33 27 -48 47 -26 34 -28 44 -31 148 l-4 112 35 54 c18 30 67
119 108 198 55 107 90 162 136 212 112 123 183 220 228 312 81 169 96 343 42
478 -22 53 -27 82 -27 150 0 136 -19 366 -39 479 -11 58 -22 143 -26 190 -19
268 -132 445 -320 502 -16 5 -73 17 -125 28 -52 10 -126 33 -165 50 -99 45
-192 76 -282 94 -83 16 -222 26 -263 20z"/>
</g>
</svg>
